<?xml version="1.0" encoding="UTF-8" standalone="no"?>
<svg
   viewBox="0 0 164 164"
   version="1.1"
   id="svg54"
   sodipodi:docname="genially_logo.svg"
   inkscape:version="1.1.2 (0a00cf5339, 2022-02-04)"
   xmlns:inkscape="http://www.inkscape.org/namespaces/inkscape"
   xmlns:sodipodi="http://sodipodi.sourceforge.net/DTD/sodipodi-0.dtd"
   xmlns="http://www.w3.org/2000/svg"
   xmlns:svg="http://www.w3.org/2000/svg">
  <sodipodi:namedview
     id="namedview56"
     pagecolor="#ffffff"
     bordercolor="#666666"
     borderopacity="1.0"
     inkscape:pageshadow="2"
     inkscape:pageopacity="0.0"
     inkscape:pagecheckerboard="0"
     showgrid="false"
     inkscape:zoom="5.3231707"
     inkscape:cx="81.906072"
     inkscape:cy="82"
     inkscape:window-width="2536"
     inkscape:window-height="1366"
     inkscape:window-x="1932"
     inkscape:window-y="62"
     inkscape:window-maximized="1"
     inkscape:current-layer="svg54" />
  <defs
     id="defs32">
    <linearGradient
       id="a"
       data-name="Degradado sin nombre 336"
       x1="79.33"
       y1="36.58"
       x2="120.64"
       y2="60.43"
       gradientUnits="userSpaceOnUse">
      <stop
         offset="0"
         stop-color="#f3b444"
         id="stop2" />
      <stop
         offset="1"
         stop-color="#f15480"
         id="stop4" />
    </linearGradient>
    <linearGradient
       id="b"
       data-name="Degradado sin nombre 294"
       x1="120"
       y1="105.85"
       x2="120"
       y2="60.21"
       gradientUnits="userSpaceOnUse">
      <stop
         offset="0"
         stop-color="#b157ce"
         id="stop7" />
      <stop
         offset="1"
         stop-color="#f15480"
         id="stop9" />
    </linearGradient>
    <linearGradient
       id="c"
       data-name="Degradado sin nombre 292"
       x1="80.3"
       y1="126.86"
       x2="121.04"
       y2="103.34"
       gradientUnits="userSpaceOnUse">
      <stop
         offset="0"
         stop-color="#5da5fb"
         id="stop12" />
      <stop
         offset="1"
         stop-color="#b157ce"
         id="stop14" />
    </linearGradient>
    <linearGradient
       id="d"
       data-name="Degradado sin nombre 262"
       x1="42.31"
       y1="102.96"
       x2="82.08"
       y2="125.92"
       gradientUnits="userSpaceOnUse">
      <stop
         offset="0"
         stop-color="#74e6a7"
         id="stop17" />
      <stop
         offset="1"
         stop-color="#5da5fb"
         id="stop19" />
    </linearGradient>
    <linearGradient
       id="e"
       data-name="Degradado sin nombre 303"
       x1="44"
       y1="58.44"
       x2="44"
       y2="104.12"
       gradientUnits="userSpaceOnUse">
      <stop
         offset="0"
         stop-color="#c8ed5c"
         id="stop22" />
      <stop
         offset="1"
         stop-color="#74e6a7"
         id="stop24" />
    </linearGradient>
    <linearGradient
       id="f"
       data-name="Degradado sin nombre 418"
       x1="44.44"
       y1="59.81"
       x2="82.61"
       y2="37.77"
       gradientUnits="userSpaceOnUse">
      <stop
         offset="0"
         stop-color="#c8ed5c"
         id="stop27" />
      <stop
         offset="1"
         stop-color="#f3b444"
         id="stop29" />
    </linearGradient>
  </defs>
  <g
     id="g46">
    <path
       d="M148.46,45.16A76,76,0,0,0,82,6V82Z"
       fill="url(#a)"
       id="path34" />
    <path
       d="M147.13,121.13A76,76,0,0,0,147.82,44L82,82Z"
       fill="url(#b)"
       id="path36" />
    <path
       d="M80.67,158a76,76,0,0,0,67.15-38L82,82Z"
       fill="url(#c)"
       id="path38" />
    <path
       d="M15.54,118.84A76,76,0,0,0,82,158V82Z"
       fill="url(#d)"
       id="path40" />
    <path
       d="M16.87,42.87A76,76,0,0,0,16.18,120L82,82Z"
       fill="url(#e)"
       id="path42" />
    <path
       d="M83.33,6A76,76,0,0,0,16.18,44L82,82Z"
       fill="url(#f)"
       id="path44" />
  </g>
  <circle
     cx="82"
     cy="82"
     r="60"
     style="fill: #000f33"
     id="circle48" />
  <path
     d="M120.43,81.1a7.44,7.44,0,0,0-7.31,6,30.29,30.29,0,1,1-19.74-34.6,7.22,7.22,0,0,0,8.68-3.06l.32-.54a7.17,7.17,0,0,0-3.84-10.39A45,45,0,0,0,81.78,35.9a45.22,45.22,0,1,0,46,54A7.44,7.44,0,0,0,120.43,81.1Z"
     fill="#fff"
     id="path50" />
  <path
     d="M94.33,76.59a9.73,9.73,0,1,0,9.73,9.73A9.73,9.73,0,0,0,94.33,76.59Z"
     fill="#fff"
     id="path52" />
</svg>
